# xmcd
#
# Track frame offsets: 
#        150
#        4198
#        20887
#        42038
#        63505
#        90665
#        93038
#        113440
#        132821
#        151008
#        167508
#        184803
#        201729
#        221857
#        244707
#
# Disc length: 3506 seconds
#
# Revision: 3
# Processed by: cddbd v1.5.2PL0 Copyright (c) Steve Scherf et al.
# Submitted via: ExactAudioCopy v0.99pb5
#
DISCID=c20db00f
DTITLE=K'Jon - I Get Around
DYEAR=2009
DGENRE=R&B
TTITLE0=Intro
TTITLE1=I Get Around
TTITLE2=Fa Sho
TTITLE3=Fly Away
TTITLE4=This Time (Feat. Lee England Jr. and Augustine Alvarez)
TTITLE5=On The Ocean (Interlude)
TTITLE6=On The Ocean
TTITLE7=Summer Rain
TTITLE8=After The Club
TTITLE9=I Know U See It
TTITLE10=Doin It Big
TTITLE11=What's Really Good (Feat. Lady Te)
TTITLE12=On Everything (Feat. Seven The General)
TTITLE13=I'll Never Forget
TTITLE14=Vanity
EXTD=
EXTT0=
EXTT1=
EXTT2=
EXTT3=
EXTT4=
EXTT5=
EXTT6=
EXTT7=
EXTT8=
EXTT9=
EXTT10=
EXTT11=
EXTT12=
EXTT13=
EXTT14=
PLAYORDER=
